# xmcd
#
# Track frame offsets:
#	150
#	24687
#	46345
#	71160
#	97105
#	114105
#	133477
#	149295
#	171840
#	196592
#
# Disc length: 2926 seconds
#
# Revision: 4
# Processed by: cddbd v1.5.2PL0 Copyright (c) Steve Scherf et al.
# Submitted via: EZCDAudioConverter 8.0.2.1
#
DISCID=900b6c0a
DTITLE=Duy Khánh, Chế Linh - Những Vùng Đất Mang Tên Anh
DYEAR=1991
DGENRE=blues
TTITLE0=Chế Linh - Yêu một mình
TTITLE1=Duy Khánh - Cô hàng xóm
TTITLE2=Chế Linh - Chuyện tình Lan và Điệp
TTITLE3=Duy Khánh - Xin chia buồn
TTITLE4=Chế Linh - Mùa mưa đi qua
TTITLE5=Duy Khánh - Chúng mình ba đứa
TTITLE6=Chế Linh - Giờ tạm biệt
TTITLE7=Duy Khánh - Cơn mê chiều
TTITLE8=Chế Linh - Tìm mãi thương yêu
TTITLE9=Duy Khánh - Tám nẻo đường thành
EXTD=
EXTT0=
EXTT1=
EXTT2=
EXTT3=
EXTT4=
EXTT5=
EXTT6=
EXTT7=
EXTT8=
EXTT9=
PLAYORDER=
